<?xml version="1.0" standalone="no"?>
<!DOCTYPE svg PUBLIC "-//W3C//DTD SVG 20010904//EN"
 "http://www.w3.org/TR/2001/REC-SVG-20010904/DTD/svg10.dtd">
<svg version="1.0" xmlns="http://www.w3.org/2000/svg"
 width="67.016740pt" height="32.000000pt" viewBox="0 0 67.016740 32.000000"
 preserveAspectRatio="xMidYMid meet">
<metadata>
Created by potrace 1.16, written by Peter Selinger 2001-2019
</metadata>
<g transform="translate(0.000000,32.000000) scale(0.002819,-0.002819)"
fill="#000000" stroke="none">
<path d="M10770 11257 c-64 -15 -122 -76 -137 -144 -9 -37 -17 -553 -30 -1877
-18 -1940 -18 -1912 28 -1977 l19 -26 -63 -7 c-34 -4 -78 -10 -97 -13 -34 -6
-34 -6 -19 18 9 13 21 45 27 71 11 42 5 87 -68 500 -165 944 -349 2041 -485
2893 -74 464 -71 451 -120 500 -63 64 -71 64 -634 54 -951 -16 -1405 -29
-1461 -41 -77 -17 -140 -80 -158 -158 -48 -207 -687 -3163 -813 -3760 -57
-270 -77 -336 -95 -317 -4 3 -1 125 5 270 14 315 9 349 -54 413 -33 32 -53 43
-100 53 -58 12 -71 10 -385 -52 -301 -60 -903 -191 -934 -203 -15 -6 -14 8 0
272 l6 102 31 6 c128 26 957 157 1227 194 l55 7 9 193 9 193 31 6 c17 4 50 26
76 52 61 62 66 90 81 453 14 359 10 398 -56 463 -33 33 -53 44 -100 54 -54 11
-91 9 -370 -24 -170 -20 -446 -54 -613 -76 -166 -21 -307 -39 -311 -39 -10 0
-2 301 8 313 8 8 460 44 1001 80 l335 22 6 130 c4 72 7 158 8 193 1 62 1 63
33 69 19 4 51 25 78 52 62 62 66 88 81 473 15 379 10 417 -55 483 -62 62 -77
63 -501 48 -1123 -38 -2231 -89 -2305 -105 -79 -18 -132 -72 -148 -153 -7 -36
-44 -894 -91 -2113 -43 -1129 -80 -2054 -82 -2056 -4 -5 -192 -24 -196 -21 -2
1 8 73 22 161 66 426 104 1001 127 1934 17 708 1 1003 -72 1308 -38 159 -77
253 -146 361 -108 167 -284 315 -445 375 -283 105 -612 127 -1269 86 -960 -60
-1381 -91 -1449 -106 -63 -14 -80 -23 -116 -58 -34 -34 -43 -52 -53 -101 -17
-89 -26 -6156 -9 -6228 15 -69 76 -132 136 -142 l41 -7 0 -194 c0 -107 3 -194
6 -194 3 0 124 63 268 139 284 152 827 422 1106 550 l175 80 6 -27 c4 -15 7
-76 8 -137 1 -60 6 -166 11 -235 10 -121 13 -206 25 -715 3 -132 10 -267 15
-300 6 -33 15 -231 20 -440 6 -209 14 -441 20 -515 5 -74 15 -202 20 -285 29
-394 102 -734 199 -923 16 -32 36 -96 46 -147 51 -273 165 -475 308 -544 125
-61 269 -61 482 0 326 93 922 361 1233 554 278 171 495 370 635 578 90 135
191 351 202 434 13 92 47 208 82 278 52 104 76 177 117 366 63 282 77 437 77
804 0 265 -2 309 -20 382 -23 96 -46 133 -98 159 -72 35 -132 26 -603 -94
-684 -175 -639 -161 -685 -207 -51 -50 -66 -106 -53 -197 11 -77 3 -500 -12
-623 -11 -92 -29 -186 -50 -263 -16 -62 -77 -123 -164 -166 -79 -39 -216 -89
-224 -81 -16 15 -43 193 -52 335 -10 162 -36 964 -46 1435 -9 387 -11 458 -18
587 -9 150 -15 468 -10 468 2 0 66 14 142 31 114 25 153 30 232 27 55 -2 107
-10 125 -19 30 -14 30 -14 42 -144 6 -72 9 -151 6 -178 -3 -26 0 -74 7 -107
16 -75 69 -135 128 -145 l37 -6 1 -62 c7 -352 6 -339 28 -334 12 3 50 12 86
21 58 14 489 89 852 147 l137 22 5 36 c4 20 6 81 5 136 -1 55 -1 128 0 162 l1
62 36 7 c62 11 106 66 127 154 34 150 7 712 -43 880 -5 19 -10 40 -10 46 0 12
207 70 217 60 4 -3 8 -41 9 -84 19 -531 23 -741 25 -1452 1 -490 -4 -829 -27
-2013 -6 -350 -2 -389 55 -446 25 -25 54 -42 84 -49 l45 -12 -5 -195 c-4 -137
-3 -195 5 -195 6 0 109 29 228 65 217 66 730 206 875 240 l77 18 7 186 c3 102
8 191 10 197 2 6 17 14 33 17 50 10 100 62 117 121 16 57 33 493 35 875 0 123
2 227 5 231 2 4 5 86 5 182 l1 174 306 43 c168 23 307 40 310 38 2 -3 -1 -156
-7 -341 -6 -185 -8 -340 -5 -345 3 -5 0 -140 -5 -300 -7 -212 -7 -303 1 -335
15 -62 67 -111 131 -127 l51 -12 -6 -193 -6 -194 22 5 c63 15 524 95 602 105
50 7 200 27 335 46 135 19 249 34 253 34 4 0 7 35 7 78 0 44 3 133 7 200 l6
122 33 6 c52 10 108 72 123 136 8 36 14 186 17 473 2 231 8 596 13 810 5 215
9 886 8 1491 l-2 1101 188 18 c103 10 189 16 192 14 2 -3 -18 -47 -45 -99 -75
-147 -144 -454 -155 -690 -3 -58 -9 -197 -15 -310 -13 -265 -6 -1503 9 -1675
24 -270 70 -466 142 -609 37 -71 54 -121 65 -180 25 -143 45 -208 92 -295 98
-183 196 -297 300 -348 31 -15 59 -28 62 -29 3 0 41 -12 86 -26 155 -51 255
-60 683 -65 668 -8 1144 27 1408 103 305 88 511 299 583 594 11 47 27 108 35
136 8 28 15 58 15 66 0 9 20 53 44 99 49 93 73 168 110 339 52 246 68 511 67
1125 0 797 -31 1278 -100 1561 -40 161 -61 214 -126 313 l-55 83 188 -6 c103
-4 203 -9 223 -12 l37 -5 5 -322 c4 -177 5 -365 4 -417 -8 -368 39 -3064 54
-3123 13 -48 68 -103 118 -117 38 -10 38 -10 45 -71 3 -34 6 -122 6 -195 l0
-132 63 -6 c34 -3 163 -15 287 -26 226 -21 674 -70 805 -89 39 -6 74 -11 78
-11 5 0 6 87 2 193 l-8 194 47 12 c30 7 59 24 84 49 63 63 64 75 48 662 -15
519 -29 1200 -31 1560 -1 107 -5 536 -9 954 l-7 758 33 -5 c18 -3 101 -14 185
-23 104 -12 150 -21 144 -28 -5 -6 -25 -58 -44 -116 -34 -99 -43 -137 -82
-350 -34 -187 -57 -789 -45 -1179 5 -146 7 -269 4 -273 -6 -9 11 -379 26 -563
6 -66 14 -178 20 -250 17 -238 93 -557 171 -725 22 -47 49 -128 61 -180 28
-131 69 -253 119 -351 50 -101 171 -261 248 -330 220 -197 557 -334 1256 -508
385 -96 577 -126 800 -125 242 2 368 42 488 154 109 102 169 231 206 445 15
88 26 122 53 167 62 101 115 278 137 458 32 268 34 306 27 568 -9 340 -11 369
-32 466 -24 108 -58 143 -164 169 -131 32 -578 125 -846 176 -235 45 -264 48
-309 38 -102 -24 -155 -113 -139 -237 5 -36 7 -191 4 -345 -5 -240 -8 -288
-24 -337 -11 -32 -25 -58 -32 -58 -34 0 -200 34 -272 56 -106 32 -142 64 -172
154 -27 81 -55 269 -69 465 -20 290 -35 1171 -25 1492 l7 192 30 11 c17 5 54
13 82 16 69 8 326 -23 391 -47 l51 -19 7 -58 c4 -31 4 -116 0 -188 -5 -89 -3
-147 5 -181 18 -73 71 -125 143 -137 l36 -7 -4 -193 -4 -194 68 -10 c37 -6
108 -18 157 -27 50 -8 258 -37 464 -65 206 -28 384 -53 396 -56 31 -8 34 5 40
169 8 206 11 224 41 231 42 11 101 79 119 138 29 97 39 635 14 818 -4 36 -10
83 -13 105 -8 68 -53 266 -78 343 l-24 73 36 38 c64 67 64 71 34 718 -15 315
-24 576 -21 579 9 9 120 -14 183 -37 29 -11 71 -37 93 -57 l41 -37 31 -195
c17 -107 43 -268 58 -357 l27 -161 -38 -37 c-55 -54 -71 -131 -83 -385 -22
-468 -34 -780 -41 -1070 -9 -352 -9 -1719 -1 -2220 10 -580 37 -1390 48 -1433
13 -50 63 -105 116 -128 l43 -18 1 -73 c1 -40 4 -126 8 -192 l6 -118 35 -14
c19 -7 134 -51 255 -97 277 -106 638 -256 943 -393 220 -98 847 -405 1112
-543 63 -33 121 -61 128 -61 8 0 12 23 14 78 0 42 2 82 3 87 2 6 3 58 4 117
l1 107 37 7 c44 8 116 76 127 120 4 16 10 270 13 564 6 575 3 616 -44 677 -15
21 -54 47 -107 72 -200 96 -825 356 -1141 476 -55 21 -103 41 -108 45 -8 7
-12 619 -3 627 3 3 95 -19 203 -50 109 -30 214 -59 233 -62 45 -9 278 -79 552
-166 119 -38 219 -69 222 -69 3 0 6 35 6 78 0 44 3 133 6 200 l7 120 34 7 c56
10 107 70 121 141 12 61 37 707 33 874 -1 52 -6 112 -12 133 -15 57 -82 120
-144 134 -27 7 -180 44 -340 82 -159 39 -420 100 -580 136 -159 36 -300 67
-312 70 -22 5 -22 6 -18 198 3 105 7 216 11 245 6 48 8 52 33 52 14 0 42 -4
61 -10 19 -5 145 -23 280 -40 135 -17 259 -35 275 -40 17 -5 83 -16 148 -24
131 -17 122 -14 195 -73 171 -139 523 -336 905 -507 556 -249 802 -300 993
-206 143 70 245 252 294 525 8 43 25 91 45 125 172 291 239 969 184 1870 -25
421 -103 699 -259 925 -84 123 -309 338 -513 491 -76 57 -134 104 -130 104 5
0 133 -25 287 -56 153 -30 282 -52 287 -47 14 14 38 147 48 269 8 98 12 119
28 127 10 6 37 29 59 53 37 37 45 54 63 131 34 148 42 218 48 478 11 464 -36
825 -139 1072 -93 224 -309 439 -543 541 -184 80 -496 146 -820 173 -181 14
-571 14 -705 -1 -267 -29 -478 -97 -630 -200 -64 -44 -182 -164 -229 -233 -90
-133 -150 -341 -177 -612 l-6 -70 -23 110 c-67 331 -160 523 -340 699 -148
145 -306 227 -561 291 -264 66 -383 77 -1134 105 -1415 51 -1358 52 -1435 -24
-29 -30 -44 -55 -52 -91 -9 -41 5 -406 78 -1984 49 -1064 86 -1937 84 -1940
-5 -4 -186 17 -192 23 -1 1 -7 107 -13 236 -14 307 -20 341 -79 400 -54 53
-59 55 -351 99 -309 47 -1084 151 -1126 151 -2 0 -4 52 -4 116 l0 117 83 -7
c263 -22 1094 -108 1175 -121 l33 -6 -3 193 -3 193 45 9 c31 7 56 22 85 51 66
65 69 99 52 470 -8 171 -20 327 -27 349 -7 22 -32 59 -58 85 -40 40 -57 49
-107 59 -61 12 -555 55 -1049 91 -147 11 -269 21 -271 23 -1 2 -5 42 -9 91
l-7 87 56 0 c65 0 644 -25 1005 -44 135 -7 246 -12 248 -11 1 1 -2 84 -7 186
-11 202 -13 193 53 205 56 9 118 74 133 139 14 59 -9 651 -29 750 -17 84 -69
137 -153 153 -121 24 -2642 67 -2739 47 -56 -11 -118 -76 -132 -136 -13 -58
70 -3741 87 -3834 6 -33 15 -64 20 -70 20 -20 6 -25 -77 -25 l-85 0 24 33 c45
60 51 114 43 442 -3 166 -12 324 -18 355 -17 76 -72 131 -148 148 -69 15 -404
30 -888 41 -205 5 -375 10 -377 13 -2 2 -7 638 -10 1413 -4 990 -9 1428 -17
1470 -15 79 -68 135 -146 153 -70 16 -1164 15 -1232 -1z m1204 -1699 c4 -838
8 -1523 9 -1524 1 -1 220 -7 487 -13 414 -10 931 -29 937 -35 1 -1 5 -149 9
-330 l7 -328 -79 7 c-169 13 -480 25 -954 37 -391 9 -611 9 -1049 -1 -304 -6
-556 -9 -559 -6 -6 5 12 2282 25 3243 l6 472 577 0 577 0 7 -1522z m2921 1502
c590 -9 1538 -30 1542 -33 2 -3 32 -681 30 -682 -1 -1 -157 6 -347 16 -460 23
-1161 52 -1164 47 -2 -1 4 -213 12 -470 l16 -467 80 -5 c45 -4 178 -13 296
-21 564 -39 1105 -88 1116 -100 9 -12 41 -632 32 -640 -2 -2 -75 5 -163 16
-407 48 -1323 134 -1333 124 -5 -5 27 -977 32 -983 2 -1 102 -14 222 -28 468
-54 1292 -169 1305 -183 7 -6 32 -501 26 -507 -2 -2 -75 -4 -163 -4 -193 -1
-348 -13 -515 -42 l-125 -21 -330 47 c-505 71 -930 119 -1414 161 -101 9 -185
17 -186 18 0 1 -19 810 -42 1797 -23 987 -44 1836 -47 1886 l-6 91 238 -4
c131 -2 531 -8 888 -13z m-5146 -327 c87 -552 352 -2135 461 -2758 56 -319
104 -594 107 -611 l5 -31 -98 -7 c-280 -20 -637 -49 -872 -72 -145 -14 -265
-24 -268 -21 -3 2 -31 212 -63 466 -31 253 -60 464 -64 467 -6 6 -602 -50
-691 -65 l-40 -6 -88 -499 c-48 -274 -89 -500 -90 -501 -2 -2 -120 -22 -263
-45 -223 -36 -581 -99 -802 -142 -60 -11 -64 -10 -86 10 l-24 22 69 323 c362
1688 810 3751 817 3759 6 7 633 24 1386 37 226 4 442 8 480 9 l70 2 54 -337z
m7841 262 c801 -27 1263 -45 1390 -55 756 -61 1071 -306 1185 -924 40 -219 50
-359 50 -701 0 -264 -3 -339 -19 -429 -46 -277 -125 -410 -270 -455 -34 -10
-93 -24 -132 -31 -85 -15 -88 -29 -18 -80 169 -121 295 -405 395 -889 19 -92
109 -632 109 -653 0 -12 -27 -10 -450 33 -58 6 -148 14 -200 19 -52 5 -144 14
-205 20 -60 6 -151 14 -202 18 -50 4 -93 9 -96 12 -2 3 -19 95 -37 205 -81
508 -118 690 -171 855 -60 183 -124 268 -236 310 -57 21 -391 85 -400 76 -4
-4 55 -1350 73 -1666 l6 -105 -30 41 c-17 23 -58 71 -92 107 -191 205 -505
326 -1012 392 -27 3 -48 10 -48 14 0 31 -170 3728 -175 3804 l-7 97 74 0 c40
0 273 -7 518 -15z m-10951 -102 c-1 -60 -6 -218 -13 -353 l-11 -245 -330 -22
c-383 -25 -1169 -84 -1173 -88 -3 -3 -50 -1089 -47 -1093 1 -1 98 11 216 27
518 72 1246 158 1256 148 8 -9 -16 -650 -25 -658 -4 -3 -108 -20 -232 -38
-378 -54 -1237 -194 -1246 -204 -1 -1 -11 -234 -23 -517 -11 -283 -23 -543
-26 -576 l-5 -61 117 28 c350 86 1316 289 1374 289 22 0 22 -1 16 -117 -4 -65
-10 -196 -13 -290 -4 -95 -10 -173 -13 -173 -30 -3 -206 -20 -241 -24 -25 -3
-124 -12 -220 -21 -96 -9 -200 -20 -231 -25 -30 -6 -76 -10 -102 -10 -25 0
-81 -5 -123 -11 -71 -11 -81 -16 -118 -53 -52 -51 -67 -108 -54 -196 5 -34 8
-64 5 -66 -5 -5 -426 -124 -437 -124 -3 0 -26 19 -51 43 -141 128 -204 167
-349 214 -179 58 -291 73 -532 74 l-178 0 5 72 c3 40 40 970 81 2067 42 1097
77 1996 78 1997 5 6 1372 65 2256 97 195 7 363 14 373 15 15 1 17 -10 16 -106z
m15296 -3 c650 -31 1003 -138 1217 -369 144 -156 220 -355 258 -681 18 -148
24 -586 11 -748 -11 -143 -35 -280 -50 -295 -6 -6 -710 126 -897 168 -22 5
-22 7 -17 187 9 297 -19 525 -81 645 -63 125 -202 186 -458 200 -139 7 -187
-6 -242 -67 -64 -71 -71 -115 -70 -450 1 -440 16 -505 148 -635 107 -106 264
-222 641 -475 461 -310 631 -444 810 -642 195 -215 276 -462 304 -918 37 -613
14 -1219 -59 -1519 -86 -357 -264 -507 -557 -471 -203 26 -597 179 -1045 407
l-188 96 0 37 c0 31 4 39 23 44 37 9 94 73 105 119 6 23 18 105 27 182 9 77
25 205 36 284 10 79 19 147 19 151 0 5 33 -11 74 -34 93 -53 217 -102 323
-129 l81 -20 49 24 c59 30 87 80 110 200 13 67 16 148 16 394 -2 434 -15 497
-147 674 -145 195 -327 344 -851 701 -340 231 -494 349 -621 475 -119 117
-169 186 -214 295 -75 183 -113 476 -126 990 -10 371 19 581 107 759 57 115
170 230 284 288 155 79 332 119 585 132 80 5 154 9 165 9 11 1 115 -3 230 -8z
m-19405 -125 c276 -32 446 -103 582 -242 254 -261 316 -623 290 -1703 -18
-725 -41 -1175 -83 -1580 -18 -182 -64 -504 -75 -534 -3 -8 -27 -16 -57 -19
-241 -25 -624 -115 -787 -184 -301 -128 -504 -371 -589 -703 -39 -150 -49
-238 -51 -450 l-1 -95 -142 -64 c-239 -108 -868 -419 -1140 -565 -142 -76
-260 -136 -262 -134 -2 2 -1 1391 2 3086 l6 3082 31 5 c28 4 658 47 1381 94
356 24 728 26 895 6z m19571 -1359 c37 -8 90 -25 119 -37 l53 -23 -6 -180 c-6
-224 2 -265 60 -323 28 -29 57 -46 87 -54 l46 -11 0 -115 0 -114 -136 92
c-293 198 -467 340 -496 406 -18 40 -37 214 -38 337 l0 49 123 -6 c67 -4 152
-13 188 -21z m-1677 -393 c10 -83 61 -288 92 -363 14 -36 41 -90 59 -120 18
-30 36 -75 40 -100 23 -153 76 -306 139 -403 85 -134 322 -344 596 -529 19
-13 6 -11 -60 8 -47 14 -190 54 -318 89 -225 62 -235 64 -285 52 -40 -9 -63
-22 -97 -57 -43 -42 -47 -52 -68 -145 -40 -181 -51 -379 -34 -608 12 -151 -11
-92 -45 119 -60 365 -85 498 -130 679 -52 213 -69 269 -118 395 l-36 95 15 75
c9 41 20 103 25 137 7 41 20 77 39 105 46 67 70 120 97 215 32 109 65 297 65
370 0 70 15 61 24 -14z m-11560 -1575 c18 -158 41 -273 59 -296 5 -7 7 -16 3
-19 -4 -4 -73 -10 -154 -14 -81 -4 -231 -13 -334 -20 -104 -7 -190 -10 -194
-7 -5 6 69 445 77 453 5 5 433 52 490 54 l35 1 18 -152z m12014 -8 c81 -23
287 -82 458 -132 l311 -91 -5 -111 c-2 -61 1 -192 7 -290 6 -99 10 -181 7
-183 -4 -4 -265 22 -366 37 -36 5 -141 17 -235 25 -93 9 -197 21 -231 26 -33
5 -77 9 -97 9 -35 0 -36 1 -44 48 -4 26 -7 148 -7 272 -1 172 4 247 17 319 17
90 23 111 33 111 2 0 70 -18 152 -40z m1028 -315 c105 -75 274 -218 353 -298
l73 -75 5 -128 c6 -139 -12 -433 -26 -447 -17 -17 -216 62 -312 123 -42 28
-96 100 -83 113 10 10 -15 108 -36 136 -12 18 -23 59 -29 111 -14 109 -27 510
-16 510 4 0 36 -20 71 -45z m-10087 -61 c220 -23 387 -66 504 -126 166 -87
270 -193 360 -368 72 -138 110 -314 141 -650 27 -297 28 -339 28 -950 -1
-1100 -40 -1372 -240 -1635 -160 -213 -380 -304 -837 -349 -413 -41 -1261 -48
-1480 -12 -171 27 -325 85 -402 150 -17 14 -35 26 -40 26 -12 0 -83 84 -137
160 -163 230 -202 559 -197 1649 1 294 4 538 7 542 2 4 4 74 5 156 0 81 7 213
16 293 8 80 16 166 19 193 11 139 73 319 160 465 203 337 542 450 1419 472
329 8 490 4 674 -16z m2529 -65 c68 -5 154 -9 193 -9 l69 0 1 -92 c1 -51 3
-354 4 -673 3 -663 11 -1239 34 -2515 6 -322 13 -650 17 -729 l7 -143 -29 6
c-76 15 -619 75 -904 100 -96 9 -202 18 -236 22 l-61 5 -7 278 c-4 153 -9 502
-11 777 -2 274 -6 681 -10 904 -3 223 -9 659 -12 970 -3 311 -6 594 -7 630 0
36 0 161 2 278 l2 212 413 -5 c226 -4 467 -10 535 -16z m2532 -43 c14 -3 108
-13 210 -21 102 -9 199 -20 215 -25 17 -4 68 -14 115 -20 372 -51 642 -197
785 -425 46 -74 109 -229 128 -315 9 -41 23 -110 32 -152 10 -42 15 -80 12
-85 -2 -4 1 -44 7 -88 8 -50 11 -182 9 -350 -2 -246 -6 -309 -18 -371 l-4 -20
-118 17 c-65 10 -136 23 -159 28 -32 8 -392 58 -766 107 l-47 6 -1 226 c0 282
1 252 -12 352 -7 47 -11 89 -10 93 4 15 -30 120 -56 169 -33 63 -99 122 -166
147 -116 43 -422 53 -509 17 -36 -16 -97 -85 -97 -111 0 -7 -6 -18 -14 -24 -7
-6 -18 -37 -25 -69 -6 -31 -18 -91 -26 -132 -15 -78 -31 -531 -29 -850 1 -279
14 -852 19 -860 3 -5 5 -61 5 -127 1 -230 47 -528 101 -659 56 -133 110 -175
296 -229 207 -58 343 -66 430 -24 45 22 59 46 88 160 30 113 47 615 25 729 -6
29 -9 54 -8 56 5 4 505 -93 804 -156 155 -33 284 -60 287 -60 2 0 11 -37 18
-82 10 -61 14 -184 13 -458 0 -378 -2 -401 -43 -585 -68 -309 -188 -447 -446
-516 -65 -18 -109 -22 -240 -22 -88 0 -198 5 -245 12 -434 64 -1242 287 -1495
413 -131 66 -244 146 -342 244 -170 170 -264 361 -328 664 -45 215 -84 585
-84 810 -1 52 -5 190 -10 305 -11 239 -6 967 8 1125 22 253 34 356 41 365 4 6
11 35 15 65 23 181 103 348 228 474 139 141 333 217 622 246 66 6 127 13 135
14 30 5 626 -3 650 -8z m-7890 -448 c7 -1113 -2 -2559 -20 -3213 -5 -192 -10
-373 -10 -402 l0 -52 -47 -6 c-188 -25 -672 -103 -886 -141 -153 -28 -261 -43
-267 -38 -5 5 -2 193 6 439 8 237 14 475 12 530 -1 55 1 278 5 496 l8 395
-108 -14 c-175 -22 -876 -122 -879 -124 -2 -3 -18 -841 -18 -953 1 -78 -27
-999 -29 -1001 -1 0 -90 -22 -197 -48 -297 -73 -514 -131 -749 -202 -118 -36
-216 -63 -218 -61 -6 6 -4 567 2 576 9 15 19 898 19 1686 0 913 1 847 -29
1730 -3 83 -10 197 -15 254 -5 57 -7 108 -4 113 3 5 1 54 -6 109 -7 55 -10
102 -7 105 3 3 54 9 113 14 60 6 132 12 159 15 47 5 286 29 405 40 30 3 107 9
170 15 63 5 145 14 182 20 37 5 94 10 127 10 l59 0 6 -72 c4 -40 6 -89 5 -108
-1 -19 1 -105 4 -190 10 -221 20 -812 19 -1097 0 -134 3 -245 8 -248 5 -3 125
8 267 25 142 16 359 40 483 53 l225 22 7 75 c3 41 4 199 1 350 -7 321 -7 272
-4 485 2 94 -2 292 -8 440 -6 149 -7 286 -3 305 l8 35 74 2 c65 2 284 16 625
39 220 15 326 20 411 22 l91 2 3 -432z m10185 191 c254 -22 519 -46 830 -78
55 -5 150 -15 210 -20 61 -6 126 -13 145 -16 41 -7 206 -24 335 -35 50 -5 133
-13 185 -18 52 -6 147 -15 210 -22 63 -6 134 -15 158 -20 23 -6 65 -10 93 -10
27 0 80 -4 117 -10 37 -5 113 -15 170 -21 75 -8 102 -15 102 -25 0 -8 -9 -69
-20 -137 -19 -120 -73 -524 -85 -643 l-7 -60 -199 28 c-110 15 -204 30 -209
33 -5 3 -127 21 -272 40 -145 19 -279 39 -298 44 -19 5 -98 17 -175 26 -77 9
-183 22 -235 30 -52 7 -97 11 -99 9 -2 -2 -6 -52 -7 -111 -2 -60 -8 -164 -13
-233 -5 -69 -10 -181 -11 -249 0 -68 -3 -127 -5 -131 -6 -9 -15 -510 -10 -510
30 0 960 -212 1240 -283 l170 -43 -2 -175 c-2 -209 -20 -740 -25 -745 -5 -4
-40 6 -303 87 -490 151 -1085 322 -1093 315 -2 -3 -2 -213 0 -468 1 -255 2
-546 0 -648 -2 -102 -1 -208 3 -236 l6 -51 217 -82 c119 -45 264 -101 322
-123 106 -42 668 -280 793 -337 l67 -30 0 -536 c0 -294 -2 -535 -5 -535 -3 0
-87 43 -186 96 -588 313 -1367 667 -2004 911 -121 46 -236 90 -255 97 l-35 14
-7 133 c-3 74 -9 310 -12 524 -3 215 -10 500 -15 635 -8 215 -5 2313 4 2525 4
117 14 378 20 545 3 80 7 163 10 186 3 22 8 94 10 159 5 156 14 225 29 219 6
-2 70 -9 141 -15z m-14900 -132 c90 -15 116 -21 175 -40 94 -30 178 -70 230
-112 102 -82 209 -219 238 -305 8 -25 18 -47 22 -50 6 -5 16 -34 41 -130 6
-25 15 -54 20 -65 29 -71 58 -359 61 -605 1 -177 -5 -250 -21 -250 -23 0 -625
-103 -676 -115 -43 -11 -378 -75 -391 -75 0 0 -4 80 -8 178 -11 270 -13 312
-24 377 -6 33 -13 80 -17 105 -4 25 -11 50 -15 55 -4 6 -10 27 -14 47 -10 57
-62 154 -95 177 -61 44 -100 53 -211 52 -159 -2 -309 -32 -388 -77 -138 -81
-173 -297 -146 -899 4 -93 8 -217 9 -275 1 -58 9 -348 18 -645 10 -297 20
-690 24 -873 3 -183 10 -335 14 -338 5 -3 9 -33 9 -67 1 -129 35 -313 73 -396
29 -63 67 -83 142 -78 137 11 360 106 455 194 103 95 136 170 175 394 21 120
34 477 26 704 l-4 100 104 28 c88 23 285 75 812 212 48 13 103 26 122 29 l33
7 7 -53 c9 -74 10 -539 3 -684 -12 -204 -50 -410 -110 -583 -178 -519 -551
-861 -1319 -1214 -571 -262 -884 -357 -1074 -327 -270 43 -413 312 -480 902
-8 73 -19 169 -24 213 -11 87 -28 449 -41 895 -5 157 -14 346 -19 421 -6 75
-13 262 -15 415 -3 153 -10 347 -16 429 -6 83 -13 209 -15 280 -2 72 -7 218
-11 325 -15 403 -8 744 17 858 6 26 13 59 16 75 3 15 9 30 14 33 5 3 9 12 9
21 0 8 16 49 35 90 19 41 35 76 35 78 0 2 15 25 32 52 50 74 144 161 243 225
88 58 111 67 370 145 166 50 555 107 975 143 99 8 522 6 575 -3z m3319 -116
c3 -5 8 -252 11 -549 l5 -541 -43 -5 c-75 -10 -572 -64 -574 -63 0 1 -4 200
-7 442 -3 242 -9 478 -12 526 l-6 85 148 28 c185 34 457 84 466 85 4 1 9 -3
12 -8z"/>
<path d="M8648 10403 c-10 -2 -18 -5 -18 -6 0 -1 -74 -373 -165 -827 -91 -454
-165 -827 -165 -830 0 -3 37 -2 83 2 45 4 185 16 310 27 126 10 230 21 232 23
2 2 -27 224 -65 493 -37 270 -88 633 -111 808 -47 345 -41 326 -101 310z m32
-1193 l36 -248 -59 -6 c-94 -10 -130 -8 -125 7 3 6 27 123 54 259 26 136 51
245 54 242 3 -3 21 -117 40 -254z"/>
<path d="M18190 10233 c-1 -46 52 -1182 56 -1209 l4 -31 263 -37 c144 -20 284
-36 311 -36 170 0 246 165 246 530 0 386 -62 610 -195 702 -60 42 -137 56
-405 78 -297 24 -280 24 -280 3z m533 -598 c42 -7 94 -22 115 -32 l37 -18 -1
-180 c-1 -137 -5 -194 -18 -237 l-17 -58 -42 1 c-53 0 -354 43 -362 51 -7 6
-24 312 -25 427 l0 74 118 -7 c64 -4 152 -14 195 -21z"/>
<path d="M1621 9824 c-146 -19 -267 -37 -270 -40 -5 -5 -71 -3754 -66 -3762 1
-1 55 20 121 46 65 27 191 77 279 111 273 107 347 161 411 295 92 194 123 566
155 1890 12 502 7 1129 -10 1211 -26 123 -45 169 -91 216 -78 81 -135 84 -529
33z m413 -541 l39 -6 -6 -521 c-4 -287 -11 -660 -17 -831 -31 -944 -57 -1234
-124 -1370 -43 -86 -76 -109 -291 -194 l-150 -59 -2 86 c-5 163 43 2841 51
2849 9 9 332 51 406 52 30 0 73 -2 94 -6z"/>
<path d="M11040 6430 c-115 -12 -150 -27 -207 -85 -43 -44 -56 -66 -76 -132
-47 -148 -49 -174 -62 -753 -8 -401 10 -1329 29 -1445 31 -186 78 -282 161
-325 48 -25 54 -25 265 -25 237 0 289 8 364 55 36 23 51 43 79 102 41 86 53
136 68 278 15 147 25 1515 11 1543 -6 12 -13 96 -16 187 -6 189 -29 360 -58
439 -21 54 -68 109 -118 135 -63 34 -262 45 -440 26z m375 -585 c32 -9 62 -18
65 -21 3 -3 5 -360 5 -792 0 -860 -7 -1000 -50 -1098 -13 -29 -34 -58 -47 -65
-24 -14 -357 -27 -401 -15 -44 11 -68 93 -88 301 -13 132 -22 1561 -10 1630 6
36 11 41 46 53 101 34 365 38 480 7z"/>
</g>
</svg>
