<?xml version="1.0" standalone="no"?>
<!DOCTYPE svg PUBLIC "-//W3C//DTD SVG 20010904//EN"
 "http://www.w3.org/TR/2001/REC-SVG-20010904/DTD/svg10.dtd">
<svg version="1.0" xmlns="http://www.w3.org/2000/svg"
 width="66.213534pt" height="32.000000pt" viewBox="0 0 66.213534 32.000000"
 preserveAspectRatio="xMidYMid meet">
<metadata>
Created by potrace 1.16, written by Peter Selinger 2001-2019
</metadata>
<g transform="translate(0.000000,32.000000) scale(0.004812,-0.004812)"
fill="#000000" stroke="none">
<path d="M0 3325 l0 -3325 6880 0 6880 0 0 3325 0 3325 -6880 0 -6880 0 0
-3325z m2834 3093 c18 -29 -4 -73 -39 -76 -74 -6 -96 -14 -113 -40 -16 -24
-17 -103 -22 -1132 l-5 -1105 -23 -80 c-37 -133 -106 -262 -201 -375 l-29 -35
174 -485 c96 -267 182 -496 192 -510 11 -14 34 -36 53 -48 30 -21 44 -23 106
-20 64 3 76 7 100 31 l28 27 3 663 c2 457 0 674 -8 700 -13 46 -40 64 -110 74
-53 8 -55 9 -58 41 -6 56 7 62 132 62 l112 0 543 -715 c299 -393 547 -718 552
-721 5 -3 9 158 9 379 l0 384 -60 37 c-180 111 -331 334 -375 555 -27 132 -17
317 23 441 42 126 107 234 200 332 86 90 159 143 265 194 129 61 328 98 399
75 136 -45 123 -240 -18 -267 -65 -12 -154 54 -154 115 0 26 -3 26 -95 -3
-110 -35 -208 -97 -300 -190 -131 -132 -202 -293 -212 -481 -13 -228 69 -430
237 -589 39 -36 75 -66 80 -66 6 0 10 62 10 161 0 218 -11 241 -122 257 l-53
7 0 45 0 45 227 3 c221 2 227 2 238 -18 6 -12 9 -34 5 -49 -5 -26 -11 -29 -59
-34 -115 -12 -128 -42 -124 -302 l3 -190 65 -21 c116 -38 117 -38 124 -1 3 17
21 66 39 107 134 307 421 508 754 527 120 7 111 -5 120 168 15 325 -112 595
-368 785 -138 103 -239 151 -524 250 -189 65 -276 110 -343 177 -122 121 -145
295 -61 462 50 99 162 181 296 216 71 19 241 19 308 1 62 -16 142 -56 184 -91
l31 -27 15 36 c8 19 15 44 15 55 0 30 63 44 88 19 17 -17 17 -419 0 -436 -13
-13 -57 -16 -74 -4 -6 4 -14 30 -17 59 -21 180 -180 303 -391 303 -165 0 -293
-69 -358 -193 -19 -34 -23 -58 -23 -132 0 -104 14 -141 77 -203 58 -58 110
-83 328 -157 107 -36 241 -89 298 -116 290 -143 496 -367 581 -632 l26 -82 72
5 c58 4 77 10 95 28 l23 23 3 677 c2 497 -1 684 -9 705 -19 46 -54 57 -183 57
-166 0 -187 -15 -196 -135 l-5 -70 -45 0 -45 0 -3 153 -3 152 551 0 551 0 -3
-152 -3 -153 -45 0 -45 0 -6 65 c-11 124 -32 140 -191 140 -132 0 -160 -8
-183 -55 -23 -49 -23 -1341 0 -1385 20 -39 43 -50 109 -50 30 0 61 -3 70 -6
22 -9 22 -89 0 -98 -9 -3 -122 -6 -253 -6 l-237 0 1 -117 c0 -65 -4 -148 -8
-185 -7 -62 -6 -68 11 -68 27 0 149 -43 212 -75 216 -109 373 -300 447 -542
24 -79 26 -104 26 -238 0 -135 -2 -159 -27 -240 -111 -363 -420 -609 -796
-632 -447 -27 -850 310 -910 761 -7 47 -10 110 -8 140 l3 55 -60 15 c-33 9
-70 19 -82 22 l-23 6 0 -491 0 -491 -23 0 c-13 0 -33 10 -44 23 -11 12 -260
337 -554 722 l-534 700 -3 -625 c-2 -453 1 -633 9 -653 15 -35 41 -50 104 -57
l50 -5 0 -45 0 -45 -435 0 -435 0 0 45 0 45 61 5 c73 6 94 21 94 66 0 18 -31
122 -70 230 -38 109 -70 199 -70 201 0 2 -159 3 -354 3 l-353 0 -72 -205 c-39
-113 -71 -215 -71 -228 0 -44 23 -62 92 -67 l63 -5 0 -45 0 -45 -245 0 -245 0
0 45 0 45 60 6 c66 6 104 26 131 67 10 15 75 187 145 382 140 391 137 368 53
369 -22 1 -75 10 -116 20 -310 80 -542 301 -634 606 -24 80 -27 107 -28 240
-1 128 3 162 22 230 105 364 419 624 777 642 93 5 102 4 135 -19 42 -29 60
-61 60 -111 0 -137 -177 -190 -249 -74 -12 19 -21 44 -21 55 0 20 -1 21 -52 6
-29 -8 -96 -36 -148 -61 -81 -39 -109 -60 -185 -137 -102 -102 -159 -197 -194
-326 -82 -295 22 -610 264 -795 123 -95 289 -155 425 -155 l67 0 82 228 c45
128 81 244 81 264 0 42 -16 55 -83 66 -39 7 -42 10 -45 43 -2 22 3 40 11 48
11 8 87 11 278 9 l264 -3 0 -45 0 -44 -44 -8 c-53 -9 -81 -32 -81 -67 0 -14
16 -72 36 -128 l37 -103 33 43 c42 53 107 183 131 262 16 56 18 140 20 1148 3
973 2 1091 -12 1121 -19 39 -51 56 -103 56 -43 0 -62 14 -62 46 0 56 -6 55
238 52 199 -3 226 -5 236 -20z m360 -254 c20 -52 -7 -84 -70 -84 -60 0 -99
-37 -109 -101 -4 -25 -5 -290 -3 -589 5 -621 4 -615 84 -700 68 -73 144 -103
273 -108 206 -8 343 67 393 217 13 38 25 1125 13 1188 -3 18 -17 46 -31 63
-22 25 -33 30 -72 30 -63 0 -74 9 -70 56 l3 39 230 0 230 0 3 -39 c4 -46 -7
-56 -63 -56 -22 0 -51 -7 -64 -16 -51 -36 -51 -41 -51 -648 0 -380 -4 -582
-11 -618 -44 -204 -235 -338 -484 -338 -193 0 -358 84 -439 222 -52 90 -56
133 -56 745 0 325 -4 572 -9 586 -17 44 -51 67 -97 67 -64 0 -74 7 -74 49 0
21 3 41 7 44 3 4 109 7 234 7 198 0 228 -2 233 -16z m4675 -2068 c7 -8 11 -30
9 -48 l-3 -33 -71 -6 c-138 -13 -144 -27 -144 -355 0 -272 5 -301 59 -329 27
-14 73 -15 347 -13 l316 3 29 33 29 32 0 271 c0 302 -3 319 -65 345 -19 8 -59
14 -89 14 -51 0 -56 2 -62 26 -4 14 -2 36 5 50 l11 24 895 0 895 0 0 -155 0
-155 -26 -6 c-14 -4 -36 -2 -50 5 -22 10 -24 16 -24 77 0 59 -3 68 -28 94 -39
38 -73 42 -357 38 -185 -2 -245 -6 -261 -17 -47 -31 -49 -41 -52 -321 -2 -238
-1 -269 15 -300 29 -57 43 -60 300 -60 l232 0 3 73 3 72 45 0 45 0 3 -194 c3
-208 2 -211 -48 -211 -40 0 -50 18 -50 92 l0 68 -225 0 c-258 0 -286 -6 -310
-64 -12 -28 -15 -88 -15 -278 0 -253 6 -302 41 -334 20 -18 40 -19 311 -19
l290 0 29 33 c26 28 29 40 29 96 0 73 12 89 62 84 l33 -3 3 -157 3 -158 -900
0 c-981 0 -911 -4 -911 54 0 36 20 46 87 46 55 0 67 4 95 29 l33 29 3 279 c2
308 1 316 -58 345 -31 16 -69 18 -328 18 -331 0 -352 -4 -377 -64 -12 -28 -15
-88 -15 -278 0 -134 5 -259 10 -279 16 -57 40 -72 128 -79 l77 -5 0 -45 0 -45
-264 -3 c-284 -3 -281 -3 -281 49 0 38 18 49 80 49 69 0 100 16 123 60 16 33
17 81 15 700 -3 629 -4 666 -22 692 -10 16 -33 32 -55 38 -21 5 -168 9 -353 7
l-316 -2 -26 -24 c-14 -14 -30 -41 -36 -60 -14 -50 -13 -1284 1 -1334 15 -53
56 -77 136 -77 58 0 63 -2 69 -24 3 -13 4 -35 2 -47 l-3 -24 -267 -3 -268 -2
-6 25 c-3 14 -3 36 0 50 6 23 11 25 69 25 76 0 107 15 129 60 17 32 18 86 18
690 0 604 -1 658 -18 690 -24 50 -70 63 -202 58 -146 -5 -167 -22 -178 -146
-4 -56 -7 -63 -29 -68 -14 -4 -35 -2 -49 5 -24 11 -24 11 -24 161 l0 150 869
0 c742 0 870 -2 880 -14z m3096 -8 c122 -36 207 -105 259 -208 106 -212 54
-484 -117 -610 -42 -30 -45 -36 -30 -45 37 -21 116 -101 138 -140 63 -109 59
-54 65 -1030 l5 -890 24 -70 c46 -138 98 -222 201 -326 81 -82 109 -102 190
-142 52 -26 124 -55 160 -64 88 -23 272 -23 359 1 543 147 747 787 389 1218
-83 99 -229 194 -357 232 -70 21 -67 21 -75 -15 -8 -42 -64 -96 -109 -104 -47
-9 -115 23 -140 64 -23 38 -22 108 2 147 10 17 36 39 57 49 36 17 48 17 142 7
446 -50 782 -422 782 -868 0 -228 -83 -432 -244 -601 -269 -283 -674 -353
-1026 -178 -225 112 -387 320 -457 585 -15 58 -17 158 -23 955 -6 1005 -1 947
-85 1031 -73 73 -128 87 -353 92 -141 3 -202 0 -224 -9 -53 -22 -58 -51 -58
-319 0 -312 6 -328 123 -339 l62 -6 0 -45 0 -45 -240 0 -240 0 0 45 0 45 64 6
c54 5 69 11 88 33 l23 27 0 679 c0 462 -3 687 -11 703 -15 34 -45 49 -111 54
l-58 6 0 42 c0 23 3 45 8 49 4 4 178 6 387 3 298 -3 391 -7 430 -19z m-6410
-1947 c44 -11 124 -42 177 -69 l96 -49 11 24 c6 13 11 35 11 48 0 46 53 70
101 45 18 -10 19 -23 19 -230 0 -207 -1 -220 -19 -230 -29 -15 -67 -12 -85 6
-9 9 -16 32 -16 55 0 84 -67 170 -173 223 -111 54 -212 77 -342 77 -213 0
-396 -79 -542 -233 -143 -152 -210 -336 -201 -552 9 -200 73 -340 223 -492 77
-78 104 -98 185 -138 132 -64 201 -80 340 -80 135 1 208 17 325 74 85 41 130
81 164 145 19 36 21 56 21 232 0 181 -1 194 -20 213 -34 34 -65 40 -220 40
-159 0 -160 0 -160 54 0 44 10 46 272 46 l248 0 0 -335 0 -335 -82 -65 c-96
-76 -210 -135 -323 -167 -116 -33 -335 -33 -450 0 -389 111 -645 446 -646 844
0 246 85 452 257 622 217 215 533 302 829 227z m4450 4 c82 -21 181 -61 237
-96 l48 -29 15 30 c8 16 15 42 15 58 0 18 6 32 16 36 26 10 79 7 92 -6 9 -9
12 -73 12 -224 0 -231 -3 -244 -56 -244 -45 0 -64 17 -64 58 -1 93 -77 188
-196 244 -110 51 -197 70 -324 69 -322 -1 -596 -196 -704 -500 -147 -412 94
-860 525 -977 88 -24 271 -24 359 -1 91 24 219 87 259 128 40 41 81 123 81
164 0 40 16 55 56 55 54 0 64 -19 64 -124 l0 -93 -47 -45 c-169 -157 -399
-239 -636 -225 -124 7 -206 27 -313 77 -110 51 -186 105 -265 186 -81 86 -121
143 -169 247 -61 131 -75 200 -74 367 1 127 4 156 27 233 103 336 372 573 712
627 80 12 255 4 330 -15z m-5911 -11 c9 -8 16 -26 16 -39 0 -33 -26 -55 -66
-55 -38 0 -74 -29 -74 -60 0 -29 468 -1331 488 -1359 32 -43 71 -65 125 -71
l52 -5 0 -45 0 -45 -229 -3 c-246 -3 -246 -3 -246 48 0 38 18 50 76 50 55 0
77 13 89 50 6 18 -20 100 -110 353 l-33 92 -353 0 -354 0 -72 -205 c-40 -113
-72 -214 -72 -226 -2 -41 23 -59 91 -64 l63 -5 0 -45 0 -45 -245 0 -245 0 -3
39 c-4 46 7 56 66 56 53 0 94 20 125 62 32 42 491 1321 491 1367 0 41 -24 61
-74 61 -20 0 -41 5 -48 12 -18 18 -15 75 6 87 10 6 116 11 269 11 216 0 254
-2 267 -16z m3124 -141 l-3 -158 -33 -3 c-50 -5 -62 11 -62 85 0 58 -3 67 -29
94 l-29 29 -285 0 c-271 0 -285 -1 -310 -20 -15 -12 -31 -38 -37 -58 -16 -59
-13 -505 4 -546 27 -64 34 -66 298 -66 l237 0 3 73 3 72 45 0 45 0 0 -200 0
-200 -45 0 -45 0 -3 73 -3 72 -239 0 -240 0 -32 -29 -33 -29 -3 -244 c-4 -287
0 -321 38 -360 l28 -28 277 0 c349 0 355 2 355 132 0 68 10 88 46 88 54 0 54
-1 54 -166 l0 -154 -559 0 c-608 0 -571 -4 -571 54 0 35 20 46 86 46 73 0 108
22 124 78 8 25 10 245 8 695 l-3 659 -33 29 c-29 26 -40 29 -97 29 -53 0 -66
3 -75 19 -14 28 -12 57 6 75 14 14 79 16 565 16 l550 0 -3 -157z m930 -569
l552 -726 0 626 c0 668 -1 680 -48 705 -12 6 -40 11 -64 11 -52 0 -68 13 -68
55 0 17 5 36 12 43 15 15 420 17 449 2 22 -12 27 -68 7 -88 -7 -7 -33 -12 -59
-12 -36 0 -55 -6 -76 -24 l-28 -24 -3 -777 -2 -776 -32 3 c-30 3 -74 57 -583
724 l-550 720 -3 -625 c-2 -455 1 -634 9 -654 15 -35 56 -57 107 -57 43 0 62
-14 62 -46 0 -55 6 -54 -240 -54 -246 0 -240 -1 -240 54 0 32 19 46 62 46 50
0 91 21 106 55 9 19 12 197 12 691 0 574 -2 669 -15 694 -19 37 -43 50 -94 50
-45 0 -71 20 -71 55 0 46 22 55 139 55 l108 0 551 -726z m2760 714 c7 -7 12
-26 12 -43 0 -38 -16 -55 -50 -55 -34 0 -50 -17 -50 -53 0 -34 309 -643 320
-630 4 4 76 141 159 304 94 184 151 307 151 325 0 36 -16 54 -46 54 -29 0 -54
25 -54 55 0 51 16 55 219 55 203 0 211 -2 211 -55 0 -41 -16 -55 -62 -55 -50
0 -110 -31 -141 -72 -13 -18 -106 -189 -205 -380 l-182 -347 0 -296 c0 -317 4
-346 51 -379 13 -9 40 -16 60 -16 45 0 61 -18 57 -62 l-3 -33 -220 0 -220 0
-3 33 c-4 44 12 62 57 62 20 0 47 7 60 16 47 33 51 62 51 380 l0 298 -181 345
c-100 190 -190 358 -201 373 -28 40 -73 69 -115 74 -84 11 -83 11 -83 58 0 26
5 46 13 49 6 3 95 6 198 6 131 1 188 -2 197 -11z"/>
<path d="M5262 3999 c-179 -26 -369 -138 -478 -282 -43 -58 -113 -190 -129
-246 l-7 -24 63 7 c219 24 409 121 535 274 52 63 126 198 140 255 6 26 4 27
-27 26 -19 -1 -62 -6 -97 -10z"/>
<path d="M2126 3980 c-24 -63 -176 -499 -176 -505 0 -13 66 7 145 45 89 42
165 94 165 113 -1 28 -129 361 -134 347z"/>
<path d="M5477 3917 c-129 -338 -416 -559 -759 -584 l-88 -6 -2 -31 c-6 -136
17 -249 77 -371 96 -198 270 -340 482 -396 106 -28 269 -29 374 -1 302 80 520
329 560 640 44 343 -171 685 -501 797 -110 37 -111 37 -143 -48z"/>
<path d="M2270 3473 c-63 -45 -197 -103 -287 -124 l-89 -21 -34 -100 c-19 -56
-36 -105 -38 -110 -2 -4 138 -8 312 -8 174 0 316 2 316 5 0 10 -133 370 -139
377 -3 3 -22 -5 -41 -19z"/>
<path d="M8633 4003 c-12 -2 -34 -18 -48 -34 l-25 -31 0 -673 c0 -501 3 -681
12 -700 22 -49 49 -55 265 -55 220 0 237 4 266 60 16 33 17 81 15 700 -3 629
-4 666 -22 692 -11 17 -33 32 -55 37 -36 9 -366 13 -408 4z"/>
<path d="M10502 3995 c-59 -26 -63 -50 -60 -367 l3 -280 34 -30 33 -30 197 4
c211 4 252 13 341 72 60 40 102 135 108 243 13 236 -87 362 -311 392 -114 16
-305 13 -345 -4z"/>
<path d="M2669 1593 l-155 -438 310 -3 c170 -1 311 0 314 2 3 4 -304 865 -312
874 -2 1 -73 -195 -157 -435z"/>
</g>
</svg>
