<svg version="1.0" xmlns="http://www.w3.org/2000/svg"
 width="2000.000000pt" height="1003.000000pt" viewBox="0 0 2000.000000 1003.000000"
 preserveAspectRatio="xMidYMid meet">
<g transform="translate(0.000000,1003.000000) scale(0.100000,-0.100000)"
fill="#000000" stroke="none">
<path d="M3122 9348 c-15 -15 -16 -82 -2 -109 9 -15 22 -19 67 -19 80 0 136
-29 162 -84 21 -42 21 -48 21 -1590 0 -1522 0 -1550 -21 -1649 -24 -118 -66
-231 -122 -331 -43 -77 -115 -176 -127 -176 -12 0 -103 262 -108 312 -4 42 -1
50 26 78 26 26 38 30 84 30 30 0 59 5 66 12 16 16 16 110 0 126 -14 14 -764
17 -786 3 -22 -14 -27 -87 -8 -116 14 -22 24 -25 72 -25 48 0 59 -4 85 -29 21
-22 29 -39 29 -65 0 -53 -240 -714 -261 -721 -9 -3 -66 -1 -127 5 -697 66
-1151 734 -956 1408 80 274 285 522 544 656 82 43 198 86 268 101 30 6 32 5
32 -20 0 -59 61 -141 123 -164 48 -19 120 -13 168 12 158 84 126 320 -49 367
-33 8 -71 8 -150 1 -320 -33 -580 -158 -800 -385 -176 -182 -286 -391 -338
-641 -27 -133 -25 -365 5 -504 54 -255 168 -461 356 -647 212 -210 497 -341
783 -361 50 -3 92 -6 92 -7 0 -1 -86 -239 -190 -530 -116 -324 -200 -543 -216
-563 -47 -62 -98 -87 -183 -91 -42 -3 -82 -9 -88 -14 -17 -13 -17 -110 -1
-126 9 -9 100 -12 349 -12 381 0 369 -2 369 75 0 61 -17 75 -95 75 -35 0 -75
4 -90 10 -31 12 -59 72 -50 109 3 14 52 158 108 318 l102 293 515 0 515 0 102
-292 c57 -161 105 -305 109 -319 8 -38 -20 -97 -51 -109 -15 -6 -53 -10 -86
-10 -86 0 -99 -9 -99 -73 0 -29 5 -58 12 -65 9 -9 163 -12 629 -12 692 0 649
-5 649 73 0 63 -9 71 -95 78 -86 7 -118 24 -147 80 -17 34 -18 82 -16 956 l3
920 145 -191 c80 -105 444 -581 809 -1058 l662 -868 40 0 39 0 0 715 c0 393 2
715 5 715 2 0 44 -11 92 -24 48 -14 99 -27 113 -30 l25 -5 2 -138 c3 -351 135
-658 387 -901 593 -572 1555 -443 1980 265 127 212 182 435 173 698 -8 202
-44 349 -130 520 -169 339 -484 587 -855 675 -34 8 -52 17 -49 25 16 40 29
225 26 364 l-4 161 362 0 c408 0 383 -5 383 79 0 61 -17 71 -119 71 -75 0 -93
3 -122 23 -73 49 -69 -20 -69 1062 0 940 1 971 20 1013 15 34 29 47 65 63 41
18 63 20 215 17 153 -3 171 -5 197 -24 49 -37 66 -79 71 -173 2 -47 9 -92 14
-98 13 -16 100 -17 116 -1 9 9 12 74 12 230 l0 218 -800 0 -800 0 0 -218 c0
-156 3 -221 12 -230 16 -16 103 -15 116 1 5 6 12 51 14 98 5 94 22 136 71 173
27 20 41 21 217 21 207 0 214 -2 264 -69 21 -27 21 -35 24 -1004 l2 -977 -22
-45 c-33 -64 -64 -78 -177 -81 l-94 -2 -27 89 c-98 328 -310 606 -620 813
-203 136 -303 182 -673 307 -353 119 -457 176 -536 295 -49 74 -65 141 -59
256 3 77 9 100 40 164 47 98 118 168 223 219 234 115 518 84 715 -77 91 -75
146 -183 157 -308 3 -33 10 -66 16 -72 12 -16 99 -17 115 -1 17 17 17 619 0
636 -13 13 -85 16 -112 6 -9 -3 -16 -18 -16 -33 0 -38 -18 -97 -34 -110 -11
-9 -28 -2 -77 32 -88 62 -159 95 -242 116 -203 52 -433 30 -612 -59 -212 -104
-329 -278 -342 -504 -7 -115 8 -192 52 -282 89 -183 231 -275 640 -414 116
-40 243 -85 283 -101 392 -156 704 -422 860 -734 120 -240 160 -571 106 -872
l-6 -33 -88 0 c-546 0 -1044 -366 -1206 -886 -19 -61 -31 -84 -43 -84 -25 0
-151 37 -204 59 l-48 21 3 302 c3 295 4 304 26 339 29 48 75 69 149 69 33 0
64 5 71 12 7 7 12 35 12 63 0 28 -5 56 -12 63 -9 9 -97 12 -333 12 -236 0
-324 -3 -333 -12 -16 -16 -16 -115 1 -125 6 -4 45 -10 85 -14 83 -7 117 -26
144 -80 16 -30 18 -66 18 -281 0 -137 -3 -248 -7 -248 -19 1 -158 127 -212
193 -397 480 -329 1175 152 1562 97 78 285 175 397 203 l75 20 7 -35 c36 -163
229 -223 339 -105 86 92 74 221 -27 298 -37 29 -39 29 -173 28 -142 0 -262
-23 -389 -73 -346 -137 -620 -419 -746 -769 -92 -257 -92 -587 0 -844 92 -256
285 -504 497 -638 l86 -55 1 -569 0 -568 -200 263 c-110 145 -460 606 -777
1024 -317 418 -588 775 -601 793 l-24 32 -167 0 c-117 0 -171 -4 -179 -12 -7
-7 -12 -36 -12 -65 0 -63 13 -73 90 -73 67 0 114 -23 142 -69 l23 -36 0 -980
c0 -940 -1 -982 -19 -1018 -28 -57 -76 -77 -181 -77 -121 0 -183 30 -235 115
-14 24 -473 1286 -513 1412 -9 30 -7 35 38 85 144 161 246 359 298 583 21 89
21 108 27 1692 5 1598 5 1602 26 1629 38 52 70 68 142 72 37 2 73 9 80 14 15
13 16 100 0 116 -9 9 -97 12 -333 12 -236 0 -324 -3 -333 -12z m4398 -3585
c-69 -181 -156 -319 -272 -435 -192 -189 -433 -298 -722 -324 l-79 -7 7 29 c4
16 21 62 37 102 156 392 558 677 961 681 l86 1 -18 -47z m277 12 c311 -78 612
-348 728 -650 60 -158 77 -251 76 -420 -1 -290 -111 -554 -317 -761 -142 -142
-307 -236 -513 -292 -86 -23 -114 -26 -266 -25 -151 0 -181 3 -268 26 -180 48
-346 140 -479 265 -179 168 -297 392 -333 632 -19 121 -20 270 -2 270 6 0 63
5 126 10 313 28 583 153 802 371 83 84 185 222 234 320 20 39 83 192 108 262
5 12 13 16 24 13 10 -3 46 -12 80 -21z m-4918 -263 c50 -139 91 -255 91 -257
0 -10 -149 -109 -213 -141 -67 -34 -246 -99 -253 -92 -2 2 51 157 116 343 158
448 151 430 160 414 4 -8 49 -128 99 -267z m166 -459 c16 -41 195 -536 195
-539 0 -2 -207 -4 -461 -4 -365 0 -460 3 -457 13 3 6 28 78 57 158 l52 146 72
13 c150 27 347 108 472 194 59 41 61 41 70 19z"/>
<path d="M3646 8974 c-10 -9 -16 -33 -16 -59 0 -61 17 -75 93 -75 70 0 114
-21 144 -67 17 -25 18 -80 24 -878 5 -735 8 -860 22 -925 47 -214 208 -385
428 -455 256 -81 541 -45 743 94 62 43 157 150 189 213 63 127 61 89 67 1038
6 948 2 891 65 950 21 20 38 25 98 28 88 5 107 19 107 78 0 74 1 74 -356 74
-352 0 -344 2 -344 -77 0 -54 18 -66 108 -74 70 -6 78 -8 108 -42 18 -19 38
-54 44 -77 16 -58 8 -1645 -8 -1714 -45 -187 -186 -312 -402 -352 -168 -32
-371 0 -490 76 -71 46 -145 130 -169 194 -39 104 -42 187 -39 1016 l3 795 23
38 c31 50 68 67 142 67 73 0 100 21 100 75 0 22 -8 43 -20 55 -19 19 -33 20
-334 20 -273 0 -317 -2 -330 -16z"/>
<path d="M8600 5740 c0 -207 1 -220 19 -230 27 -14 96 -13 108 3 6 6 13 51 16
99 5 99 23 140 77 175 31 22 43 23 209 23 206 0 231 -7 269 -80 l22 -44 0
-966 0 -966 -22 -44 c-33 -62 -72 -80 -178 -80 -54 0 -91 -5 -98 -12 -7 -7
-12 -35 -12 -63 0 -28 5 -56 12 -63 17 -17 749 -17 766 0 16 16 16 110 0 126
-7 7 -44 12 -98 12 -106 0 -145 18 -177 80 l-23 44 0 966 0 966 23 44 c41 82
25 80 573 80 l481 0 33 -23 c19 -12 43 -38 54 -57 21 -35 21 -44 21 -1010 0
-966 0 -975 -21 -1010 -36 -63 -74 -80 -175 -80 -84 0 -89 -1 -105 -25 -18
-28 -14 -85 7 -111 16 -19 748 -21 767 -2 16 16 16 110 0 126 -7 7 -44 12 -97
12 -100 0 -143 17 -178 69 -23 34 -23 34 -23 440 0 385 1 408 20 438 41 68 36
68 530 71 l445 3 44 -23 c89 -46 86 -26 89 -475 3 -386 2 -396 -19 -439 -30
-63 -75 -84 -181 -84 -46 0 -89 -4 -96 -9 -22 -14 -27 -87 -8 -116 l16 -25
1305 0 1305 0 0 225 c0 212 -1 225 -19 235 -25 13 -77 13 -102 0 -16 -9 -19
-22 -19 -81 0 -100 -16 -153 -56 -189 -18 -16 -48 -32 -66 -35 -18 -3 -207 -5
-420 -3 -373 3 -388 4 -415 24 -63 46 -63 49 -63 487 0 445 -1 436 70 480 34
21 46 22 378 25 l342 3 0 -100 c0 -116 8 -131 71 -131 83 0 79 -15 79 298 0
203 -3 281 -12 290 -18 18 -103 15 -122 -4 -12 -12 -16 -38 -16 -115 l0 -100
-337 3 c-377 3 -391 6 -433 73 -19 31 -20 49 -20 436 0 385 1 405 20 437 11
18 34 41 52 52 31 19 51 20 426 20 421 0 434 -1 478 -51 31 -35 44 -83 44
-165 0 -62 3 -75 19 -84 25 -13 77 -13 102 0 18 10 19 23 19 230 l0 220 -1303
0 c-1000 0 -1306 -3 -1315 -12 -7 -7 -12 -35 -12 -63 0 -28 5 -56 12 -63 7 -7
44 -12 98 -12 105 0 144 -18 178 -81 l23 -43 -3 -397 c-3 -384 -4 -399 -24
-426 -11 -15 -38 -37 -60 -48 -37 -19 -59 -20 -479 -20 -412 0 -443 1 -483 19
-24 11 -51 33 -63 52 -20 32 -20 47 -20 435 1 447 -1 438 71 486 28 19 46 23
117 23 112 0 123 7 123 73 0 29 -5 58 -12 65 -9 9 -307 12 -1280 12 l-1268 0
0 -220z m4290 47 c19 -12 43 -38 54 -57 21 -35 21 -44 21 -1010 0 -966 0 -975
-21 -1010 -11 -19 -35 -45 -54 -57 -32 -23 -38 -23 -329 -23 -335 0 -346 2
-388 76 l-23 39 3 985 2 985 24 34 c42 58 55 60 382 61 291 0 297 0 329 -23z"/>
<path d="M14466 5945 c-21 -22 -22 -98 0 -119 11 -11 35 -16 82 -16 88 0 130
-21 160 -80 l22 -44 0 -966 0 -966 -22 -44 c-31 -59 -73 -80 -160 -80 -81 0
-98 -13 -98 -75 0 -77 -12 -75 365 -75 334 0 334 0 349 22 21 29 20 92 0 112
-11 11 -35 16 -82 16 -88 0 -130 21 -159 80 -23 44 -23 50 -23 421 0 510 -24
479 361 479 213 0 256 -3 324 -20 159 -41 246 -100 304 -210 62 -117 61 -77
61 -1390 0 -1293 1 -1309 55 -1495 34 -118 119 -290 192 -390 468 -634 1382
-703 1933 -145 183 185 301 410 351 665 18 92 18 368 0 460 -34 175 -116 369
-217 511 -119 169 -335 343 -525 425 -206 89 -480 134 -577 94 -76 -32 -122
-102 -122 -185 0 -142 140 -238 268 -184 66 27 122 95 122 148 0 14 5 28 10
31 16 10 157 -33 246 -74 322 -151 553 -447 618 -791 20 -103 21 -304 2 -402
-81 -422 -389 -753 -804 -866 -88 -24 -113 -26 -277 -26 -153 0 -192 4 -259
22 -196 54 -358 146 -502 287 -158 155 -252 316 -312 533 l-27 97 -5 1265 c-6
1148 -8 1271 -23 1328 -17 62 -61 160 -92 205 -28 41 -119 128 -162 155 -24
15 -43 29 -43 32 0 3 17 14 37 25 57 30 164 143 200 210 92 175 107 431 36
629 -54 148 -152 260 -287 326 -145 71 -155 72 -762 77 -493 4 -543 3 -558
-12z m1081 -150 c46 -9 111 -31 159 -55 125 -61 188 -143 225 -291 18 -70 21
-102 16 -199 -13 -299 -142 -436 -450 -479 -104 -15 -439 -14 -488 0 -21 7
-53 27 -71 46 l-33 34 -3 419 c-4 575 -26 540 335 540 162 0 255 -4 310 -15z"/>
<path d="M5856 3120 c-293 -37 -532 -150 -739 -349 -142 -137 -236 -277 -306
-456 -61 -154 -84 -281 -84 -460 0 -179 23 -306 84 -460 136 -350 427 -628
777 -745 155 -51 245 -63 452 -57 160 4 198 8 280 31 191 54 355 141 513 274
l77 65 0 484 0 483 -367 -2 -368 -3 -10 -38 c-7 -30 -5 -45 6 -65 l15 -27 229
-5 c217 -5 232 -6 266 -28 67 -41 70 -59 67 -354 l-3 -263 -28 -57 c-56 -114
-177 -205 -364 -271 -212 -76 -492 -78 -708 -5 -376 128 -656 450 -730 841
-19 102 -19 302 0 404 43 224 144 414 309 578 156 155 339 253 561 300 105 22
313 23 416 1 337 -71 536 -230 547 -437 4 -59 7 -68 29 -78 32 -15 95 -14 116
2 16 11 17 40 15 337 l-3 325 -63 3 c-75 4 -92 -7 -92 -55 0 -42 -24 -101 -44
-109 -8 -3 -28 3 -43 14 -44 30 -161 87 -241 116 -161 58 -406 86 -566 66z"/>
<path d="M12360 3119 c-474 -59 -876 -375 -1044 -821 -56 -151 -71 -239 -71
-443 0 -166 3 -202 24 -285 61 -246 169 -438 341 -610 171 -172 346 -272 597
-341 98 -27 392 -38 512 -19 224 36 475 158 649 315 l62 57 0 143 c0 137 -1
145 -22 159 -27 19 -98 21 -120 4 -10 -8 -21 -40 -27 -81 -19 -131 -93 -231
-223 -304 -162 -90 -336 -134 -528 -134 -244 0 -443 63 -640 202 -545 385
-616 1188 -146 1663 211 214 484 328 786 329 181 0 340 -38 500 -120 151 -77
231 -180 254 -329 7 -45 17 -79 26 -84 23 -15 93 -12 118 6 22 15 22 16 22
329 0 272 -2 316 -16 329 -19 20 -117 22 -132 4 -5 -7 -13 -36 -17 -64 -3 -28
-15 -65 -26 -83 l-19 -31 -42 26 c-121 77 -285 140 -438 170 -97 19 -285 25
-380 13z"/>
<path d="M3387 3083 c-4 -3 -7 -30 -7 -59 0 -62 13 -74 80 -74 74 0 109 -31
110 -97 0 -41 -147 -460 -648 -1850 -38 -104 -73 -166 -113 -194 -39 -28 -111
-49 -165 -49 -67 0 -74 -6 -74 -60 0 -83 -15 -80 365 -80 290 0 336 2 349 16
19 19 22 97 4 112 -7 5 -45 12 -85 14 -86 4 -123 26 -137 81 -8 32 2 69 99
347 l109 310 517 0 517 0 102 -287 c56 -159 104 -305 107 -325 7 -45 -9 -88
-39 -107 -11 -7 -55 -15 -97 -18 -87 -6 -101 -17 -101 -74 0 -70 -6 -69 350
-69 l320 0 14 22 c16 25 18 74 5 99 -6 11 -28 18 -70 22 -80 7 -145 41 -185
97 -22 31 -80 180 -187 480 -86 239 -226 631 -312 870 -210 583 -215 598 -215
644 1 66 36 96 112 96 66 0 80 15 76 80 l-3 55 -396 3 c-217 1 -398 -1 -402
-5z m564 -594 c88 -244 192 -529 230 -633 38 -104 69 -195 69 -203 0 -11 -83
-13 -460 -13 -272 0 -460 4 -460 9 0 5 101 296 225 646 124 350 225 639 225
643 0 19 26 -48 171 -449z"/>
<path d="M7106 3074 c-10 -27 -7 -99 6 -112 7 -7 44 -12 98 -12 108 0 146 -17
178 -80 l22 -45 -2 -980 -3 -980 -23 -33 c-36 -49 -75 -65 -182 -71 l-95 -6
-3 -53 c-2 -31 2 -60 9 -68 10 -12 134 -14 820 -14 l809 0 -2 228 -3 227 -53
3 c-30 2 -60 -2 -67 -8 -9 -7 -14 -43 -17 -110 -3 -110 -16 -138 -79 -175 -32
-19 -52 -20 -436 -20 -392 0 -402 1 -430 21 -15 11 -38 36 -50 54 -23 33 -23
34 -23 438 0 388 1 406 20 437 42 67 56 70 438 73 l342 3 0 -104 c0 -67 4
-107 12 -115 15 -15 82 -16 109 -2 18 10 19 24 19 283 0 150 -4 278 -9 285 -5
9 -26 12 -67 10 l-59 -3 -3 -107 -3 -108 -337 0 c-330 0 -339 0 -382 23 -83
41 -81 31 -80 488 0 448 -1 439 70 486 33 23 35 23 432 23 380 0 401 -1 438
-20 57 -29 80 -79 80 -177 0 -43 4 -84 8 -91 12 -18 72 -26 105 -13 l27 11 0
215 0 215 -814 0 c-733 0 -814 -2 -820 -16z"/>
<path d="M8947 3083 c-12 -11 -8 -108 5 -121 7 -7 38 -12 71 -12 84 0 121 -21
152 -84 l25 -52 -2 -969 c-3 -955 -3 -971 -23 -1005 -29 -49 -73 -71 -158 -79
l-72 -6 -3 -53 c-2 -31 2 -60 9 -68 17 -21 641 -21 658 0 7 8 11 37 9 68 l-3
53 -74 7 c-85 9 -127 30 -156 78 -20 34 -20 50 -23 963 -1 510 1 927 5 927 5
0 13 -8 20 -18 6 -10 85 -115 175 -233 90 -118 346 -452 569 -744 223 -291
505 -662 628 -822 l224 -293 43 0 44 0 0 1108 c0 1034 1 1109 18 1142 27 55
74 80 148 80 44 0 67 5 78 16 20 19 21 97 2 113 -9 8 -108 11 -342 9 l-329 -3
-3 -55 c-4 -68 9 -80 92 -80 78 0 120 -24 147 -84 19 -43 19 -73 17 -962 l-3
-919 -221 290 c-121 160 -299 394 -395 520 -95 127 -255 336 -354 467 -99 130
-281 369 -405 532 l-225 296 -171 0 c-94 0 -174 -3 -177 -7z"/>
<path d="M13532 3078 c-17 -17 -15 -93 4 -112 10 -11 34 -16 68 -16 67 0 143
-37 193 -95 21 -23 79 -121 129 -216 51 -96 171 -325 268 -510 l176 -335 0
-455 c0 -412 -2 -457 -18 -489 -22 -45 -72 -77 -130 -85 -96 -12 -92 -9 -92
-70 0 -43 4 -56 19 -65 12 -6 129 -10 310 -10 l291 0 15 23 c13 21 14 85 0
107 -2 4 -31 10 -64 13 -74 6 -122 34 -147 85 -18 34 -19 72 -22 485 l-3 448
67 127 c37 70 159 302 271 515 112 213 213 401 225 418 12 16 46 46 75 66 45
31 64 37 125 42 40 4 79 10 86 14 13 9 16 94 4 115 -7 9 -74 12 -303 10 l-294
-3 -10 -38 c-14 -57 8 -90 63 -97 23 -3 51 -13 63 -23 44 -39 29 -78 -214
-552 -124 -242 -229 -441 -234 -442 -4 -2 -54 88 -111 200 -56 111 -155 306
-221 433 -139 272 -148 293 -131 335 15 36 37 49 83 49 47 0 59 18 55 82 l-3
53 -290 3 c-218 2 -294 -1 -303 -10z"/>
</g>
</svg>
